<svg version="1.1" xmlns="http://www.w3.org/2000/svg" viewBox="0 0 512 512">
  <defs>
    <clipPath id="circle-clip">
      <circle cx="256" cy="256" r="256"/>
    </clipPath>
  </defs>

  <!-- 圆形背景 -->
  <circle cx="256" cy="256" r="256" fill="#FFFFFF"/>

  <!-- 嵌入 JF 图标，使用圆形裁剪 -->
  <g clip-path="url(#circle-clip)">
    <g transform="translate(26, 26)">
      <svg viewBox="0 0 460 460" width="460" height="460">
        <path fill="#FFFFFF" opacity="1.000000" stroke="none"
          d="
        M257.000000,461.000000
          C171.333328,461.000000 86.166664,461.000000 1.000000,461.000000
          C1.000000,307.666656 1.000000,154.333328 1.000000,1.000000
          C154.333328,1.000000 307.666656,1.000000 461.000000,1.000000
          C461.000000,154.333328 461.000000,307.666656 461.000000,461.000000
          C393.166656,461.000000 325.333344,461.000000 257.000000,461.000000
        M318.911560,224.500000
          C318.911560,178.744461 318.911560,132.988937 318.911560,87.256805
          C300.850800,85.756195 284.939270,89.869781 270.821381,100.163460
          C249.422256,115.766014 239.387817,137.058167 239.414398,163.409790
          C239.479614,228.072266 239.435074,292.734863 239.434692,357.397400
          C239.434692,359.162537 239.434692,360.927673 239.434692,362.886078
          C250.396362,363.188812 260.201294,361.399353 269.990448,358.234222
          C298.487122,349.020386 319.236816,319.516357 318.946594,288.995575
          C318.745361,267.832184 318.910248,246.665314 318.911560,224.500000
        M138.992935,261.500000
          C138.992935,298.967224 138.992935,336.434448 138.992935,374.144043
          C154.047394,375.416290 168.058685,372.686890 180.794540,365.145325
          C206.640900,349.840302 218.737000,326.643555 218.742096,296.865356
          C218.753082,232.733047 218.745499,168.600739 218.745529,104.468422
          C218.745529,102.671547 218.745529,100.874672 218.745529,98.984222
          C217.737259,98.754097 217.114029,98.499985 216.484909,98.484406
          C193.295273,97.910233 173.511734,105.810509 157.926666,123.040710
          C145.182907,137.129684 139.042862,154.029678 139.007614,173.046875
          C138.953583,202.197815 138.993118,231.348953 138.992935,261.500000
        M117.413155,301.991882
          C107.538979,297.043945 97.625893,294.217468 86.348267,297.850983
          C71.603508,302.601501 62.134041,312.212830 58.838554,326.979797
          C55.275826,342.944336 60.381256,356.767578 73.459747,366.663330
          C87.105370,376.988220 102.029121,377.141083 116.883209,369.118866
          C129.892929,362.092743 137.615372,345.657257 135.608749,330.131348
          C134.066055,318.194885 127.384224,309.420959 117.413155,301.991882
        M357.862244,163.821060
          C362.152344,164.162003 366.499664,165.126114 370.722839,164.738297
          C391.331604,162.845825 407.158722,144.996719 406.136261,123.608742
          C404.939941,98.583557 379.153290,77.972504 350.327148,90.418388
          C335.703583,96.732239 326.801941,113.346954 328.099213,128.394775
          C329.556610,145.299622 340.863525,159.063690 357.862244,163.821060
        M373.005615,227.461731
          C374.500519,216.160095 361.752563,204.219986 350.312225,204.861893
          C338.166565,205.543350 328.217285,214.872452 328.007660,227.021439
          C327.803833,238.833786 337.733368,249.552902 349.677826,249.917007
          C360.947021,250.260529 373.082672,241.275711 373.005615,227.461731
        z"/>
        <path fill="#494A4A" opacity="1.000000" stroke="none"
          d="
        M318.911560,225.000000
          C318.910248,246.665314 318.745361,267.832184 318.946594,288.995575
          C319.236816,319.516357 298.487122,349.020386 269.990448,358.234222
          C260.201294,361.399353 250.396362,363.188812 239.434692,362.886078
          C239.434692,360.927673 239.434692,359.162537 239.434692,357.397400
          C239.435074,292.734863 239.479614,228.072266 239.414398,163.409790
          C239.387817,137.058167 249.422256,115.766014 270.821381,100.163460
          C284.939270,89.869781 300.850800,85.756195 318.911560,87.256805
          C318.911560,132.988937 318.911560,178.744461 318.911560,225.000000
        M307.050110,109.108032
          C307.050110,105.835899 307.050110,102.563766 307.050110,99.187798
          C305.231659,99.187798 304.042175,98.986351 302.943451,99.217110
          C271.313354,105.860199 251.420059,130.056152 251.166031,161.721741
          C250.675903,222.819824 251.022522,283.924622 251.022217,345.026611
          C251.022202,346.607239 251.022202,348.187866 251.022202,350.673340
          C255.635178,349.660034 259.302277,348.854492 263.703461,347.950104
          C266.317535,346.918060 269.029846,346.081299 271.530457,344.823639
          C295.552856,332.741669 307.112061,312.952301 307.151489,286.322235
          C307.235779,229.381851 307.188171,172.441269 307.179535,115.500771
          C307.179260,113.676331 307.014069,111.851913 307.050110,109.108032
        z"/>
        <path fill="#474747" opacity="1.000000" stroke="none"
          d="
        M138.992935,261.000000
          C138.993118,231.348953 138.953583,202.197815 139.007614,173.046875
          C139.042862,154.029678 145.182907,137.129684 157.926666,123.040710
          C173.511734,105.810509 193.295273,97.910233 216.484909,98.484406
          C217.114029,98.499985 217.737259,98.754097 218.745529,98.984222
          C218.745529,100.874672 218.745529,102.671547 218.745529,104.468422
          C218.745499,168.600739 218.753082,232.733047 218.742096,296.865356
          C218.737000,326.643555 206.640900,349.840302 180.794540,365.145325
          C168.058685,372.686890 154.047394,375.416290 138.992935,374.144043
          C138.992935,336.434448 138.992935,298.967224 138.992935,261.000000
        M206.927917,185.108032
          C206.927917,160.510712 206.927917,135.913406 206.927917,110.910995
          C204.708359,111.055000 203.215973,110.994095 201.787674,111.267746
          C171.896423,116.994781 150.827637,142.812943 150.941406,172.654648
          C151.175095,233.950607 151.008881,295.248077 151.021118,356.544952
          C151.021454,358.284882 151.178619,360.024811 151.290878,362.348572
          C155.327637,361.421936 158.689301,360.650269 162.788605,359.938080
          C167.477402,357.889160 172.502655,356.379456 176.797684,353.699493
          C197.037292,341.070312 206.606842,322.291168 206.726425,298.751770
          C206.917328,261.177094 206.734558,223.600525 206.927917,185.108032
        z"/>
        <path fill="#484747" opacity="1.000000" stroke="none"
          d="
        M117.721321,302.189117
          C127.384224,309.420959 134.066055,318.194885 135.608749,330.131348
          C137.615372,345.657257 129.892929,362.092743 116.883209,369.118866
          C102.029121,377.141083 87.105370,376.988220 73.459747,366.663330
          C60.381256,356.767578 55.275826,342.944336 58.838554,326.979797
          C62.134041,312.212830 71.603508,302.601501 86.348267,297.850983
          C97.625893,294.217468 107.538979,297.043945 117.721321,302.189117
        M99.950569,362.800720
          C102.008820,362.169678 104.099586,361.627960 106.119888,360.892639
          C116.911316,356.964874 122.766907,348.967133 123.724403,337.801727
          C124.680634,326.651001 120.424675,317.512054 110.370255,312.020325
          C99.357430,306.005188 90.961349,306.286652 79.738747,314.373260
          C70.618347,320.945068 67.498238,334.160278 71.388084,345.009735
          C75.381859,356.149048 86.276917,363.178436 99.950569,362.800720
        z"/>
        <path fill="#474848" opacity="1.000000" stroke="none"
          d="
        M357.458008,163.731308
          C340.863525,159.063690 329.556610,145.299622 328.099213,128.394775
          C326.801941,113.346954 335.703583,96.732239 350.327148,90.418388
          C379.153290,77.972504 404.939941,98.583557 406.136261,123.608742
          C407.158722,144.996719 391.331604,162.845825 370.722839,164.738297
          C366.499664,165.126114 362.152344,164.162003 357.458008,163.731308
        M391.399048,113.317162
          C385.690430,102.659569 376.563354,97.847328 364.760162,98.793785
          C354.469910,99.618912 346.595398,104.875465 342.514343,114.553581
          C338.262390,124.636841 339.257019,134.423904 346.226135,143.115784
          C352.454102,150.883377 360.933167,153.795425 370.587433,152.668182
          C390.775726,150.310959 399.421570,129.060120 391.399048,113.317162
        z"/>
        <path fill="#474748" opacity="1.000000" stroke="none"
          d="
        M372.999634,227.911896
          C373.082672,241.275711 360.947021,250.260529 349.677826,249.917007
          C337.733368,249.552902 327.803833,238.833786 328.007660,227.021439
          C328.217285,214.872452 338.166565,205.543350 350.312225,204.861893
          C361.752563,204.219986 374.500519,216.160095 372.999634,227.911896
        M360.916779,229.054611
          C361.601349,224.082352 359.930511,219.729095 355.425049,217.900452
          C352.589264,216.749481 348.586853,216.991486 345.607178,218.034805
          C341.473389,219.482224 339.320801,225.133530 340.265869,229.222580
          C341.461060,234.393814 345.347473,237.781860 350.293701,237.964569
          C354.979858,238.137634 358.825867,235.173889 360.916779,229.054611
        z"/>
        <path fill="#7AC6FF" opacity="1.000000" stroke="none"
          d="
        M306.925781,110.027489
          C307.014069,111.851913 307.179260,113.676331 307.179535,115.500771
          C307.188171,172.441269 307.235779,229.381851 307.151489,286.322235
          C307.112061,312.952301 295.552856,332.741669 271.530457,344.823639
          C269.029846,346.081299 266.317535,346.918060 263.329285,347.526978
          C262.960022,284.218536 262.936554,221.333206 262.994232,158.447952
          C263.005524,146.147568 267.570129,135.690582 275.837830,126.516388
          C284.282745,117.145554 295.181549,112.912155 306.925781,110.027489
        z"/>
        <path fill="#6295BB" opacity="1.000000" stroke="none"
          d="
        M306.987946,109.567764
          C295.181549,112.912155 284.282745,117.145554 275.837830,126.516388
          C267.570129,135.690582 263.005524,146.147568 262.994232,158.447952
          C262.936554,221.333206 262.960022,284.218536 262.962250,347.576385
          C259.302277,348.854492 255.635178,349.660034 251.022202,350.673340
          C251.022202,348.187866 251.022202,346.607239 251.022217,345.026611
          C251.022522,283.924622 250.675903,222.819824 251.166031,161.721741
          C251.420059,130.056152 271.313354,105.860199 302.943451,99.217110
          C304.042175,98.986351 305.231659,99.187798 307.050110,99.187798
          C307.050110,102.563766 307.050110,105.835899 306.987946,109.567764
        z"/>
        <path fill="#FE7A7A" opacity="1.000000" stroke="none"
          d="
        M206.709778,186.024750
          C206.734558,223.600525 206.917328,261.177094 206.726425,298.751770
          C206.606842,322.291168 197.037292,341.070312 176.797684,353.699493
          C172.502655,356.379456 167.477402,357.889160 162.419479,359.450226
          C162.343521,337.497253 162.818390,316.032745 162.890839,294.566895
          C163.028076,253.905258 163.172928,213.240814 162.825882,172.581711
          C162.675446,154.957596 169.722488,141.397720 183.535065,131.181183
          C190.031219,126.376289 197.432953,123.240242 206.024063,122.679291
          C206.024063,142.382034 206.005997,161.533417 206.053894,180.684631
          C206.058350,182.465210 206.481201,184.244736 206.709778,186.024750
        z"/>
        <path fill="#BD6262" opacity="1.000000" stroke="none"
          d="
        M206.818848,185.566391
          C206.481201,184.244736 206.058350,182.465210 206.053894,180.684631
          C206.005997,161.533417 206.024063,142.382034 206.024063,122.679291
          C197.432953,123.240242 190.031219,126.376289 183.535065,131.181183
          C169.722488,141.397720 162.675446,154.957596 162.825882,172.581711
          C163.172928,213.240814 163.028076,253.905258 162.890839,294.566895
          C162.818390,316.032745 162.343521,337.497253 162.050659,359.420471
          C158.689301,360.650269 155.327637,361.421936 151.290878,362.348572
          C151.178619,360.024811 151.021454,358.284882 151.021118,356.544952
          C151.008881,295.248077 151.175095,233.950607 150.941406,172.654648
          C150.827637,142.812943 171.896423,116.994781 201.787674,111.267746
          C203.215973,110.994095 204.708359,111.055000 206.927917,110.910995
          C206.927917,135.913406 206.927917,160.510712 206.818848,185.566391
        z"/>
        <path fill="#FDC1C1" opacity="1.000000" stroke="none"
          d="
        M99.527657,362.846497
          C86.276917,363.178436 75.381859,356.149048 71.388084,345.009735
          C67.498238,334.160278 70.618347,320.945068 79.738747,314.373260
          C90.961349,306.286652 99.357430,306.005188 110.370255,312.020325
          C120.424675,317.512054 124.680634,326.651001 123.724403,337.801727
          C122.766907,348.967133 116.911316,356.964874 106.119888,360.892639
          C104.099586,361.627960 102.008820,362.169678 99.527657,362.846497
        z"/>
        <path fill="#C1E4FD" opacity="1.000000" stroke="none"
          d="
        M391.550903,113.669189
          C399.421570,129.060120 390.775726,150.310959 370.587433,152.668182
          C360.933167,153.795425 352.454102,150.883377 346.226135,143.115784
          C339.257019,134.423904 338.262390,124.636841 342.514343,114.553581
          C346.595398,104.875465 354.469910,99.618912 364.760162,98.793785
          C376.563354,97.847328 385.690430,102.659569 391.550903,113.669189
        z"/>
        <path fill="#BFE1FB" opacity="1.000000" stroke="none"
          d="
        M360.864746,229.456573
          C358.825867,235.173889 354.979858,238.137634 350.293701,237.964569
          C345.347473,237.781860 341.461060,234.393814 340.265869,229.222580
          C339.320801,225.133530 341.473389,219.482224 345.607178,218.034805
          C348.586853,216.991486 352.589264,216.749481 355.425049,217.900452
          C359.930511,219.729095 361.601349,224.082352 360.864746,229.456573
        z"/>
      </svg>
    </g>
  </g>
</svg>
